<svg xmlns="http://www.w3.org/2000/svg" viewBox="0 0 46.18729 49.84542"><polygon points="31.927 30.189 31.927 48.845 37.048 43.267 45.187 43.541 31.927 30.189" fill="none" stroke="#06f" stroke-linecap="round" stroke-linejoin="round" stroke-width="2"/><path d="M21.50079,15.77507V5.22205L6.09088,20.632h6.17461" fill="none" stroke="#a7a7a7" stroke-linecap="round" stroke-linejoin="round" stroke-width="2"/><path d="M28.30713,25.15894h6.27154V12.08105H21.50079" fill="none" stroke="#a7a7a7" stroke-linecap="round" stroke-linejoin="round" stroke-width="1.76699"/><path d="M28.30713,25.15894A8.31594,8.31594,0,0,0,12.549,20.632a8.31783,8.31783,0,1,0,15.75818,4.527Z" fill="none" stroke="#a7a7a7" stroke-linecap="round" stroke-linejoin="round" stroke-width="1.76699"/><path d="M36.9375,34.32943a1.69462,1.69462,0,0,1,.56769-.3063V20.45587a1.68084,1.68084,0,0,1,0-3.21448V3.67413a1.68529,1.68529,0,0,1-1.13263-1.19574H21.67316a1.68489,1.68489,0,0,1-3.27124,0H3.70251A1.68753,1.68753,0,0,1,2.66138,3.64575v13.624a1.68446,1.68446,0,0,1,0,3.15771v13.624a1.68734,1.68734,0,0,1,1.04113,1.1673H18.40192a1.68492,1.68492,0,0,1,3.27124,0H31.92652" fill="none" stroke="#06f" stroke-linecap="round" stroke-linejoin="round" stroke-width="0.75"/><path d="M37.50519,3.67413a1.67216,1.67216,0,0,0,.503.08466,1.71734,1.71734,0,1,0-1.63562-1.2804" fill="none" stroke="#06f" stroke-linecap="round" stroke-linejoin="round" stroke-width="0.75"/><path d="M36.37256,2.47839a1.68529,1.68529,0,0,0,1.13263,1.19574" fill="none" stroke="#06f" stroke-linecap="round" stroke-linejoin="round" stroke-width="0.75"/><path d="M21.67316,2.47839a1.692,1.692,0,1,0-3.27124,0" fill="none" stroke="#06f" stroke-linecap="round" stroke-linejoin="round" stroke-width="0.75"/><path d="M3.70251,2.47839a1.68882,1.68882,0,1,0-1.63562,1.2804,1.67892,1.67892,0,0,0,.59449-.113" fill="none" stroke="#06f" stroke-linecap="round" stroke-linejoin="round" stroke-width="0.75"/><path d="M2.66138,3.64575A1.68753,1.68753,0,0,0,3.70251,2.47839" fill="none" stroke="#06f" stroke-linecap="round" stroke-linejoin="round" stroke-width="0.75"/><path d="M2.66138,17.26978a1.692,1.692,0,1,0,0,3.15771" fill="none" stroke="#06f" stroke-linecap="round" stroke-linejoin="round" stroke-width="0.75"/><path d="M2.66138,34.05151a1.68886,1.68886,0,1,0,1.09741,1.57886,1.6802,1.6802,0,0,0-.05628-.41156" fill="none" stroke="#06f" stroke-linecap="round" stroke-linejoin="round" stroke-width="0.75"/><path d="M3.70251,35.21881a1.68734,1.68734,0,0,0-1.04113-1.1673" fill="none" stroke="#06f" stroke-linecap="round" stroke-linejoin="round" stroke-width="0.75"/><path d="M18.40192,35.21881a1.692,1.692,0,1,0,3.27124,0" fill="none" stroke="#06f" stroke-linecap="round" stroke-linejoin="round" stroke-width="0.75"/><path d="M21.67316,35.21881a1.68492,1.68492,0,0,0-3.27124,0" fill="none" stroke="#06f" stroke-linecap="round" stroke-linejoin="round" stroke-width="0.75"/><path d="M39.19861,36.83259a1.682,1.682,0,0,0-1.69342-2.80946" fill="none" stroke="#06f" stroke-linecap="round" stroke-linejoin="round" stroke-width="0.75"/><path d="M37.50519,34.02313a1.68521,1.68521,0,0,0-1.13263,1.19568" fill="none" stroke="#06f" stroke-linecap="round" stroke-linejoin="round" stroke-width="0.75"/><path d="M37.50519,20.45587a1.67216,1.67216,0,0,0,.503.08466,1.6919,1.6919,0,0,0,0-3.38379,1.67216,1.67216,0,0,0-.503.08465" fill="none" stroke="#06f" stroke-linecap="round" stroke-linejoin="round" stroke-width="0.75"/></svg>