<svg xmlns="http://www.w3.org/2000/svg" viewBox="0 0 42.18945 41.67122"><polyline points="28.953 1 41.189 1 41.189 13.236" fill="none" stroke="#06f" stroke-linecap="round" stroke-linejoin="round" stroke-width="2"/><line x1="30.23475" y1="11.95471" x2="41.18945" y2="1" fill="none" stroke="#06f" stroke-linecap="round" stroke-linejoin="round" stroke-width="2"/><path d="M35.07135,16.57844V35.9349a5.307,5.307,0,0,1-5.307,5.307H5.73632a5.307,5.307,0,0,1-5.307-5.307V11.90684a5.307,5.307,0,0,1,5.307-5.307H25.76887" fill="none" stroke="#a7a7a7" stroke-linecap="round" stroke-linejoin="round" stroke-width="0.85869"/><polyline points="18.297 20.613 18.297 10.06 2.887 25.47 9.061 25.47" fill="none" stroke="#06f" stroke-linecap="round" stroke-linejoin="round" stroke-width="2"/><polyline points="25.103 29.997 31.374 29.997 31.374 16.919 18.297 16.919" fill="none" stroke="#06f" stroke-linecap="round" stroke-linejoin="round" stroke-width="2"/><path d="M25.10288,29.99661a8.31594,8.31594,0,0,0-15.75818-4.527,8.31783,8.31783,0,1,0,15.75818,4.527Z" fill="none" stroke="#06f" stroke-linecap="round" stroke-linejoin="round" stroke-width="2"/></svg>