<?xml version="1.0" encoding="utf-8"?>
<!-- Generator: Adobe Illustrator 22.1.0, SVG Export Plug-In . SVG Version: 6.00 Build 0)  -->
<svg version="1.1" id="Layer_1" xmlns="http://www.w3.org/2000/svg" xmlns:xlink="http://www.w3.org/1999/xlink" x="0px" y="0px"
	 viewBox="0 0 24 24" style="enable-background:new 0 0 24 24;" xml:space="preserve">
<title>export</title>
<g>
	<path d="M19,14v5.6c0,0.2-0.2,0.4-0.4,0.4H5.4C5.2,20,5,19.8,5,19.6V14H3v5.6C3,20.9,4.1,22,5.4,22h13.2c1.3,0,2.4-1.1,2.4-2.4V14
		H19z"/>
	<path d="M7.7,8.7L11,5.4V13c0,0.6,0.4,1,1,1s1-0.4,1-1V5.4l3.3,3.3C16.5,8.9,16.7,9,17,9s0.5-0.1,0.7-0.3c0.4-0.4,0.4-1,0-1.4
		L12,1.6L6.3,7.3c-0.4,0.4-0.4,1,0,1.4S7.3,9.1,7.7,8.7z"/>
</g>
</svg>
