<?xml version="1.0" encoding="utf-8"?>
<!-- Generator: Adobe Illustrator 22.1.0, SVG Export Plug-In . SVG Version: 6.00 Build 0)  -->
<svg version="1.1" id="Layer_1" xmlns="http://www.w3.org/2000/svg" xmlns:xlink="http://www.w3.org/1999/xlink" x="0px" y="0px"
	 viewBox="0 0 24 24" style="enable-background:new 0 0 24 24;" xml:space="preserve">
<g>
	<path d="M19.4,21.2H4.7c-1.5,0-2.7-1.2-2.7-2.7v-7.6C2,9.3,3.2,8,4.7,8h14.5c1.5,0,2.7,1.2,2.7,2.7v7.6
		C22,19.9,20.8,21.2,19.4,21.2z"/>
	<path d="M19.4,21.2H4.7c-1.5,0-2.7-1.2-2.7-2.7V5.6c0-1.5,1.2-2.7,2.7-2.7h3.5c0.8,0,1.4,0.3,1.7,0.6l0.6,0.6
		c0.3,0.2,0.5,0.3,0.6,0.3h8.1c1.5,0,2.7,1.2,2.7,2.7v11.5C22,19.9,20.8,21.2,19.4,21.2z M4.7,4.4c-0.6,0-1.1,0.5-1.1,1.2v13
		c0,0.6,0.5,1.2,1.2,1.2h14.5c0.6,0,1.2-0.5,1.2-1.2V7.1c0-0.6-0.5-1.2-1.2-1.2h-8.2c-0.6,0-1.2-0.3-1.5-0.6L8.9,4.5
		c-0.2,0-0.3-0.2-0.5-0.2H4.7z"/>
</g>
</svg>
