<?xml version="1.0" encoding="utf-8"?>
<!-- Generator: Adobe Illustrator 22.1.0, SVG Export Plug-In . SVG Version: 6.00 Build 0)  -->
<svg version="1.1" id="Layer_1" xmlns="http://www.w3.org/2000/svg" xmlns:xlink="http://www.w3.org/1999/xlink" x="0px" y="0px"
	 viewBox="0 0 24 24" style="enable-background:new 0 0 24 24;" xml:space="preserve">
<style type="text/css">
	.st0{fill:#222221;}
</style>
<title>helpcenter</title>
<path class="st0" d="M5,2C3.4,1.9,2.1,3.2,2,4.8C2,4.9,2,4.9,2,5v14c-0.1,1.6,1.2,2.9,2.8,3c0.1,0,0.1,0,0.2,0h17V2H5z M8.5,7
	c0-1.1,0.5-2.1,1.4-2.8c0.6-0.3,1.3-0.5,2-0.5c0.9-0.1,1.8,0.2,2.5,0.7c0.7,0.5,1.1,1.3,1.1,2.2c0,0.6-0.2,1.1-0.5,1.6l-1,0.9
	l-0.4,0.3c-0.2,0.2-0.4,0.4-0.5,0.7c0,0.2-0.1,0.5-0.1,0.7h-2c0-0.5,0.1-1.1,0.2-1.6c0.2-0.4,0.5-0.8,0.9-1l0.5-0.4L13,7.5
	c0.1-0.3,0.2-0.5,0.2-0.8c0-0.3-0.1-0.6-0.3-0.8c-0.2-0.3-0.6-0.4-0.9-0.4c-0.4,0-0.8,0.2-1,0.5c-0.2,0.3-0.3,0.6-0.3,1H8.5z
	 M13.2,11.6v2.2h-2.3v-2.2H13.2z M20,20H6c-1.1,0-2-0.9-2-2s0.9-2,2-2h14V20z"/>
</svg>
