<?xml version="1.0" encoding="utf-8"?>
<!-- Generator: Adobe Illustrator 22.1.0, SVG Export Plug-In . SVG Version: 6.00 Build 0)  -->
<svg version="1.1" id="Layer_1" xmlns="http://www.w3.org/2000/svg" xmlns:xlink="http://www.w3.org/1999/xlink" x="0px" y="0px"
	 viewBox="0 0 24 24" style="enable-background:new 0 0 24 24;" xml:space="preserve">
<title>import</title>
<g>
	<path d="M19,14v5.6c0,0.2-0.2,0.4-0.4,0.4H5.4C5.2,20,5,19.8,5,19.6V14H3v5.6C3,20.9,4.1,22,5.4,22h13.2c1.3,0,2.4-1.1,2.4-2.4V14
		H19z"/>
	<path d="M12,14.4l5.7-5.7c0.4-0.4,0.4-1,0-1.4s-1-0.4-1.4,0L13,10.6V3c0-0.6-0.4-1-1-1s-1,0.4-1,1v7.6L7.7,7.3
		c-0.4-0.4-1-0.4-1.4,0s-0.4,1,0,1.4L12,14.4z"/>
</g>
</svg>
