<?xml version="1.0" encoding="utf-8"?>
<!-- Generator: Adobe Illustrator 22.1.0, SVG Export Plug-In . SVG Version: 6.00 Build 0)  -->
<svg version="1.1" id="Layer_1" xmlns="http://www.w3.org/2000/svg" xmlns:xlink="http://www.w3.org/1999/xlink" x="0px" y="0px"
	 viewBox="0 0 24 24" style="enable-background:new 0 0 24 24;" xml:space="preserve">
<style type="text/css">
	.st0{fill:#222221;}
</style>
<path class="st0" d="M22,10h-2l-0.9-0.9V7.8l1.4-1.5V4.9l-1.4-1.4h-1.4l-1.5,1.4h-1.3L14,4V2l-1-1h-2l-1,1v2L9.1,4.9H7.8L6.3,3.5
	H4.9L3.5,4.9v1.4l1.4,1.5v1.3L4,10H2l-1,1v2l1,1h2l0.9,0.9v1.3l-1.4,1.5v1.4l1.4,1.4h1.4l1.5-1.4h1.3L10,20v2l1,1h2l1-1v-2l0.9-0.9
	h1.3l1.5,1.4h1.4l1.4-1.4v-1.4l-1.4-1.5v-1.3L20,14h2l1-1v-2L22,10z M17,12c0,2.8-2.2,5-5,5s-5-2.2-5-5s2.2-5,5-5S17,9.2,17,12z"/>
</svg>
